Amstelvar-Roman-opsz-min.ufo
<glyph name="parenleft" format="2">
  <advance width="715"/>
  <unicode hex="0028"/>
  <outline>
    <contour>
      <point x="88" y="526" type="qcurve" smooth="yes"/>
      <point x="88" y="823"/>
      <point x="390" y="1393"/>
      <point x="565" y="1526" type="qcurve"/>
      <point x="660" y="1422" type="line"/>
      <point x="534" y="1281"/>
      <point x="324" y="802"/>
      <point x="324" y="526" type="qcurve" smooth="yes"/>
      <point x="324" y="250"/>
      <point x="533" y="-226"/>
      <point x="660" y="-368" type="qcurve"/>
      <point x="567" y="-474" type="line"/>
      <point x="391" y="-340"/>
      <point x="88" y="226"/>
    </contour>
  </outline>
</glyph>
<glyph name="zero" format="2">
  <advance width="1264"/>
  <unicode hex="0030"/>
  <outline>
    <contour>
      <point x="74" y="746" type="qcurve" smooth="yes"/>
      <point x="74" y="1091"/>
      <point x="390" y="1520"/>
      <point x="633" y="1520" type="qcurve" smooth="yes"/>
      <point x="882" y="1520"/>
      <point x="1190" y="1097"/>
      <point x="1190" y="754" type="qcurve" smooth="yes"/>
      <point x="1190" y="432"/>
      <point x="887" y="-30"/>
      <point x="639" y="-30" type="qcurve" smooth="yes"/>
      <point x="387" y="-30"/>
      <point x="74" y="399"/>
    </contour>
    <contour>
      <point x="303" y="773" type="qcurve" smooth="yes"/>
      <point x="304" y="506"/>
      <point x="484" y="145"/>
      <point x="631" y="145" type="qcurve" smooth="yes"/>
      <point x="791" y="145"/>
      <point x="959" y="475"/>
      <point x="961" y="749" type="qcurve" smooth="yes"/>
      <point x="963" y="1006"/>
      <point x="784" y="1336"/>
      <point x="634" y="1336" type="qcurve" smooth="yes"/>
      <point x="473" y="1336"/>
      <point x="302" y="1037"/>
    </contour>
  </outline>
</glyph>
<glyph name="less" format="2">
  <advance width="720"/>
  <unicode hex="003C"/>
  <outline>
    <contour>
      <point x="43" y="634" type="qcurve"/>
      <point x="46" y="638"/>
      <point x="475" y="1029"/>
      <point x="541" y="1081" type="qcurve" smooth="yes"/>
      <point x="605" y="1131"/>
      <point x="702" y="1042"/>
      <point x="649" y="984" type="qcurve" smooth="yes"/>
      <point x="525" y="849"/>
      <point x="324" y="637"/>
      <point x="320" y="637" type="qcurve"/>
      <point x="324" y="637"/>
      <point x="525" y="432"/>
      <point x="648" y="302" type="qcurve" smooth="yes"/>
      <point x="702" y="244"/>
      <point x="607" y="151"/>
      <point x="543" y="203" type="qcurve" smooth="yes"/>
      <point x="477" y="257"/>
      <point x="45" y="630"/>
    </contour>
  </outline>
</glyph>
<glyph name="at" format="2">
  <advance width="1766"/>
  <unicode hex="0040"/>
  <outline>
    <contour>
      <point x="66.0" y="722.0" type="qcurve" smooth="yes"/>
      <point x="66.0" y="1054.0"/>
      <point x="524.0" y="1530.0"/>
      <point x="881.0" y="1530.0" type="qcurve" smooth="yes"/>
      <point x="1238.0" y="1530.0"/>
      <point x="1709.0" y="1135.0"/>
      <point x="1709.0" y="813.0" type="qcurve" smooth="yes"/>
      <point x="1709.0" y="564.0"/>
      <point x="1454.0" y="314.0"/>
      <point x="1298.0" y="314.0" type="qcurve" smooth="yes"/>
      <point x="1218.0" y="314.0"/>
      <point x="1101.0" y="360.0"/>
      <point x="1069.0" y="412.0" type="qcurve"/>
      <point x="1023.0" y="359.0"/>
      <point x="873.0" y="302.0"/>
      <point x="793.0" y="302.0" type="qcurve" smooth="yes"/>
      <point x="627.0" y="302.0"/>
      <point x="480.0" y="453.0"/>
      <point x="480.0" y="560.0" type="qcurve" smooth="yes"/>
      <point x="480.0" y="674.0"/>
      <point x="752.0" y="859.0"/>
      <point x="1073.0" y="909.0" type="qcurve"/>
      <point x="1082.0" y="781.0" type="line"/>
      <point x="888.0" y="757.0"/>
      <point x="696.0" y="642.0"/>
      <point x="696.0" y="571.0" type="qcurve" smooth="yes"/>
      <point x="696.0" y="508.0"/>
      <point x="769.0" y="449.0"/>
      <point x="839.0" y="449.0" type="qcurve" smooth="yes"/>
      <point x="926.0" y="449.0"/>
      <point x="1027.0" y="519.0"/>
      <point x="1036.0" y="555.0" type="qcurve"/>
      <point x="1038.0" y="813.0" type="line" smooth="yes"/>
      <point x="1039.0" y="933.0"/>
      <point x="937.0" y="1030.0"/>
      <point x="851.0" y="1030.0" type="qcurve" smooth="yes"/>
      <point x="781.0" y="1030.0"/>
      <point x="676" y="993"/>
      <point x="638" y="969" type="qcurve" smooth="yes"/>
      <point x="630" y="963"/>
      <point x="611" y="935"/>
      <point x="590" y="935" type="qcurve" smooth="yes"/>
      <point x="565" y="935"/>
      <point x="500" y="1004"/>
      <point x="500" y="1033" type="qcurve" smooth="yes"/>
      <point x="500" y="1056"/>
      <point x="535.0" y="1081.0"/>
      <point x="543.0" y="1088.0" type="qcurve" smooth="yes"/>
      <point x="587.0" y="1127.0"/>
      <point x="758.0" y="1201.0"/>
      <point x="869.0" y="1201.0" type="qcurve" smooth="yes"/>
      <point x="1009.0" y="1201.0"/>
      <point x="1226.0" y="1032.0"/>
      <point x="1226.0" y="825.0" type="qcurve" smooth="yes"/>
      <point x="1226.0" y="461.0" type="line"/>
      <point x="1244.0" y="452.0"/>
      <point x="1278.0" y="446.0"/>
      <point x="1308.0" y="446.0" type="qcurve" smooth="yes"/>
      <point x="1415.0" y="446.0"/>
      <point x="1552.0" y="619.0"/>
      <point x="1552.0" y="809.0" type="qcurve" smooth="yes"/>
      <point x="1552.0" y="1030.0"/>
      <point x="1193.0" y="1369.0"/>
      <point x="893.0" y="1369.0" type="qcurve" smooth="yes"/>
      <point x="595.0" y="1369.0"/>
      <point x="233.0" y="1020.0"/>
      <point x="235.0" y="736.0" type="qcurve" smooth="yes"/>
      <point x="237.0" y="449.0"/>
      <point x="598.0" y="72.0"/>
      <point x="888.0" y="72.0" type="qcurve" smooth="yes"/>
      <point x="1017.0" y="72.0"/>
      <point x="1228.0" y="109.0"/>
      <point x="1285.0" y="133.0" type="qcurve"/>
      <point x="1337.0" y="16.0" type="line"/>
      <point x="1257.0" y="-28.0"/>
      <point x="1017.0" y="-77.0"/>
      <point x="882.0" y="-77.0" type="qcurve" smooth="yes"/>
      <point x="531.0" y="-77.0"/>
      <point x="66.0" y="365.0"/>
    </contour>
  </outline>
</glyph>
<glyph name="N" format="2">
  <advance width="1658"/>
  <unicode hex="004E"/>
  <outline>
    <contour>
      <point x="82" y="0" type="line"/>
      <point x="82" y="150" type="line"/>
      <point x="276" y="185" type="line"/>
      <point x="278" y="754" type="line"/>
      <point x="276" y="1302" type="line"/>
      <point x="82" y="1336" type="line"/>
      <point x="82" y="1500" type="line"/>
      <point x="556" y="1500" type="line"/>
      <point x="943" y="825" type="line"/>
      <point x="1236" y="364" type="line"/>
      <point x="1231" y="754" type="line"/>
      <point x="1229" y="1302" type="line"/>
      <point x="1030" y="1336" type="line"/>
      <point x="1030" y="1500" type="line"/>
      <point x="1586" y="1500" type="line"/>
      <point x="1586" y="1336" type="line"/>
      <point x="1392" y="1302" type="line"/>
      <point x="1390" y="754" type="line"/>
      <point x="1386" y="0" type="line"/>
      <point x="1202" y="0" type="line"/>
      <point x="752" y="747" type="line"/>
      <point x="432" y="1276" type="line"/>
      <point x="437" y="754" type="line"/>
      <point x="439" y="185" type="line"/>
      <point x="628" y="150" type="line"/>
      <point x="628" y="0" type="line"/>
    </contour>
  </outline>
</glyph>
<glyph name="T" format="2">
  <advance width="1350"/>
  <unicode hex="0054"/>
  <outline>
    <contour>
      <point x="33" y="1038" type="line"/>
      <point x="33" y="1500" type="line"/>
      <point x="1317" y="1500" type="line"/>
      <point x="1317" y="1038" type="line"/>
      <point x="1157" y="1038" type="line"/>
      <point x="1122" y="1336" type="line"/>
      <point x="806" y="1336" type="line"/>
      <point x="787" y="1316" type="line"/>
      <point x="785" y="754" type="line"/>
      <point x="787" y="207" type="line"/>
      <point x="1004" y="171" type="line"/>
      <point x="1004" y="0" type="line"/>
      <point x="344" y="0" type="line"/>
      <point x="344" y="171" type="line"/>
      <point x="563" y="207" type="line"/>
      <point x="565" y="754" type="line"/>
      <point x="563" y="1316" type="line"/>
      <point x="554" y="1336" type="line"/>
      <point x="228" y="1336" type="line"/>
      <point x="193" y="1038" type="line"/>
    </contour>
  </outline>
</glyph>
<glyph name="bracketleft" format="2">
  <advance width="715"/>
  <unicode hex="005B"/>
  <outline>
    <contour>
      <point x="180" y="508" type="line"/>
      <point x="168" y="1362" type="line"/>
      <point x="159" y="1382" type="line"/>
      <point x="159" y="1500" type="line"/>
      <point x="627" y="1500" type="line"/>
      <point x="617" y="1341" type="line"/>
      <point x="388" y="1322" type="line"/>
      <point x="386" y="508" type="line"/>
      <point x="388" y="-302" type="line"/>
      <point x="627" y="-321" type="line"/>
      <point x="627" y="-480" type="line"/>
      <point x="159" y="-480" type="line"/>
      <point x="159" y="-362" type="line"/>
      <point x="168" y="-342" type="line"/>
    </contour>
  </outline>
</glyph>
<glyph name="j" format="2">
  <advance width="599"/>
  <unicode hex="006A"/>
  <outline>
    <contour>
      <point x="-10" y="-484" type="qcurve"/>
      <point x="-50" y="-333" type="line"/>
      <point x="79" y="-335.0"/>
      <point x="221" y="-242"/>
      <point x="221" y="-130" type="qcurve" smooth="yes"/>
      <point x="219.0" y="552.0" type="line"/>
      <point x="213.0" y="835.0" type="line"/>
      <point x="45.0" y="865.0" type="line"/>
      <point x="45.0" y="1016.0" type="line"/>
      <point x="367.0" y="1050.0" type="line"/>
      <point x="414.0" y="1050.0" type="line"/>
      <point x="437.0" y="1011.0" type="line"/>
      <point x="431.0" y="552.0" type="line"/>
      <point x="433" y="-100" type="line" smooth="yes"/>
      <point x="434" y="-271"/>
      <point x="189" y="-484"/>
    </contour>
    <contour>
      <point x="173" y="1366" type="qcurve" smooth="yes"/>
      <point x="173" y="1429"/>
      <point x="249" y="1503"/>
      <point x="320" y="1503" type="qcurve" smooth="yes"/>
      <point x="387" y="1503"/>
      <point x="467" y="1426"/>
      <point x="467" y="1366" type="qcurve" smooth="yes"/>
      <point x="467" y="1308"/>
      <point x="398" y="1225"/>
      <point x="320" y="1225" type="qcurve" smooth="yes"/>
      <point x="246" y="1225"/>
      <point x="173" y="1311"/>
    </contour>
  </outline>
</glyph>
<glyph name="k" format="2">
  <advance width="1159"/>
  <unicode hex="006B"/>
  <outline>
    <contour>
      <point x="76" y="0" type="line"/>
      <point x="76" y="137" type="line"/>
      <point x="218" y="172" type="line"/>
      <point x="220" y="552" type="line"/>
      <point x="218" y="1319" type="line"/>
      <point x="52" y="1349" type="line"/>
      <point x="52" y="1500" type="line"/>
      <point x="372" y="1534" type="line"/>
      <point x="404" y="1534" type="line"/>
      <point x="432" y="1502" type="line"/>
      <point x="430" y="532" type="line"/>
      <point x="432" y="172" type="line"/>
      <point x="570" y="137" type="line"/>
      <point x="570" y="0" type="line"/>
    </contour>
    <contour>
      <point x="398" y="405" type="line"/>
      <point x="390" y="571" type="line"/>
      <point x="717" y="873" type="line"/>
      <point x="584" y="903" type="line"/>
      <point x="584" y="1050" type="line"/>
      <point x="1102" y="1050" type="line"/>
      <point x="1102" y="903" type="line"/>
      <point x="911" y="868" type="line"/>
    </contour>
    <contour>
      <point x="507" y="604" type="line"/>
      <point x="659" y="730" type="line"/>
      <point x="1025" y="179" type="line"/>
      <point x="1193" y="137" type="line"/>
      <point x="1193" y="0" type="line"/>
      <point x="906" y="0" type="line"/>
      <point x="872" y="25" type="line"/>
      <point x="828" y="115" type="line"/>
    </contour>
  </outline>
</glyph>
<glyph name="n" format="2">
  <advance width="1351"/>
  <unicode hex="006E"/>
  <outline>
    <contour>
      <point x="76" y="0" type="line"/>
      <point x="76" y="137" type="line"/>
      <point x="224" y="172" type="line"/>
      <point x="226" y="552" type="line"/>
      <point x="224" y="835" type="line"/>
      <point x="76" y="865" type="line"/>
      <point x="76" y="1016" type="line"/>
      <point x="377" y="1050" type="line"/>
      <point x="412" y="1023" type="line"/>
      <point x="437" y="916" type="line"/>
      <point x="501" y="986"/>
      <point x="698" y="1071"/>
      <point x="804" y="1071" type="qcurve" smooth="yes"/>
      <point x="973" y="1071"/>
      <point x="1143" y="921"/>
      <point x="1143" y="791" type="qcurve" smooth="yes"/>
      <point x="1143" y="738"/>
      <point x="1132" y="573"/>
      <point x="1132" y="552" type="qcurve" smooth="yes"/>
      <point x="1137" y="172" type="line"/>
      <point x="1285" y="137" type="line"/>
      <point x="1285" y="0" type="line"/>
      <point x="765" y="0" type="line"/>
      <point x="765" y="137" type="line"/>
      <point x="923" y="172" type="line"/>
      <point x="925" y="552" type="line"/>
      <point x="925" y="711" type="line" smooth="yes"/>
      <point x="925" y="794"/>
      <point x="817" y="886"/>
      <point x="728" y="886" type="qcurve" smooth="yes"/>
      <point x="640" y="886"/>
      <point x="482" y="802"/>
      <point x="436" y="735" type="qcurve"/>
      <point x="435" y="552" type="line"/>
      <point x="437" y="172" type="line"/>
      <point x="575" y="137" type="line"/>
      <point x="575" y="0" type="line"/>
    </contour>
  </outline>
</glyph>
<glyph name="v" format="2">
  <advance width="1116"/>
  <unicode hex="0076"/>
  <outline>
    <contour>
      <point x="-10" y="909" type="line"/>
      <point x="-10" y="1050" type="line"/>
      <point x="479" y="1050" type="line"/>
      <point x="479" y="919" type="line"/>
      <point x="339" y="882" type="line"/>
      <point x="449" y="561" type="line"/>
      <point x="573" y="231" type="line"/>
      <point x="705" y="572" type="line"/>
      <point x="812" y="889" type="line"/>
      <point x="675" y="919" type="line"/>
      <point x="675" y="1050" type="line"/>
      <point x="1126" y="1050" type="line"/>
      <point x="1126" y="909" type="line"/>
      <point x="971" y="874" type="line"/>
      <point x="837" y="523" type="line"/>
      <point x="643" y="-8" type="line"/>
      <point x="461" y="-8" type="line"/>
      <point x="267" y="504" type="line"/>
      <point x="122" y="874" type="line"/>
    </contour>
  </outline>
</glyph>
<glyph name="brokenbar" format="2">
  <advance width="604"/>
  <unicode hex="00A6"/>
  <outline>
    <contour>
      <point x="212" y="728" type="line"/>
      <point x="212" y="900" type="line"/>
      <point x="219" y="1208" type="line"/>
      <point x="207" y="1500" type="line"/>
      <point x="397" y="1530" type="line"/>
      <point x="385" y="1208" type="line"/>
      <point x="390" y="900" type="line"/>
      <point x="392" y="748" type="line"/>
    </contour>
    <contour>
      <point x="207" y="-520" type="line"/>
      <point x="219" y="-128" type="line"/>
      <point x="214" y="180" type="line"/>
      <point x="212" y="388" type="line"/>
      <point x="392" y="408" type="line"/>
      <point x="392" y="180" type="line"/>
      <point x="385" y="-128" type="line"/>
      <point x="397" y="-490" type="line"/>
    </contour>
  </outline>
</glyph>
<glyph name="section" format="2">
  <advance width="1138"/>
  <unicode hex="00A7"/>
  <outline>
    <contour>
      <point x="1058" y="127" type="qcurve" smooth="yes"/>
      <point x="1058" y="-45"/>
      <point x="811" y="-253"/>
      <point x="640" y="-253" type="qcurve" smooth="yes"/>
      <point x="501" y="-253"/>
      <point x="325" y="-187"/>
      <point x="270" y="-135" type="qcurve"/>
      <point x="227" y="-235" type="line"/>
      <point x="125" y="-235" type="line"/>
      <point x="125" y="216" type="line"/>
      <point x="258" y="216" type="line"/>
      <point x="280" y="117" type="line" smooth="yes"/>
      <point x="305" y="4"/>
      <point x="489" y="-104"/>
      <point x="607" y="-104" type="qcurve" smooth="yes"/>
      <point x="718" y="-104"/>
      <point x="848" y="-9"/>
      <point x="848" y="95" type="qcurve" smooth="yes"/>
      <point x="848" y="199"/>
      <point x="674" y="312"/>
      <point x="491" y="379" type="qcurve" smooth="yes"/>
      <point x="321" y="442"/>
      <point x="125" y="612"/>
      <point x="125" y="754" type="qcurve" smooth="yes"/>
      <point x="125" y="838"/>
      <point x="217" y="981"/>
      <point x="281" y="1027" type="qcurve"/>
      <point x="227" y="1063"/>
      <point x="170" y="1173"/>
      <point x="170" y="1229" type="qcurve" smooth="yes"/>
      <point x="170" y="1359"/>
      <point x="389" y="1512"/>
      <point x="553" y="1512" type="qcurve" smooth="yes"/>
      <point x="630" y="1512"/>
      <point x="763" y="1472"/>
      <point x="803" y="1449" type="qcurve"/>
      <point x="818" y="1480" type="line"/>
      <point x="915" y="1480" type="line"/>
      <point x="915" y="1156" type="line"/>
      <point x="782" y="1156" type="line"/>
      <point x="761" y="1280" type="line" smooth="yes"/>
      <point x="755" y="1317"/>
      <point x="647" y="1369"/>
      <point x="565" y="1369" type="qcurve" smooth="yes"/>
      <point x="474" y="1369"/>
      <point x="386" y="1312"/>
      <point x="386" y="1260" type="qcurve" smooth="yes"/>
      <point x="386" y="1198"/>
      <point x="479" y="1119"/>
      <point x="645" y="1075" type="qcurve" smooth="yes"/>
      <point x="809" y="1032"/>
      <point x="1022" y="886"/>
      <point x="1022" y="741" type="qcurve" smooth="yes"/>
      <point x="1022" y="642"/>
      <point x="868" y="487"/>
      <point x="742" y="477" type="qcurve"/>
      <point x="883" y="420"/>
      <point x="1058" y="249"/>
    </contour>
    <contour>
      <point x="317" y="788" type="qcurve" smooth="yes"/>
      <point x="317" y="710"/>
      <point x="440" y="618"/>
      <point x="595" y="559" type="qcurve"/>
      <point x="697" y="551"/>
      <point x="833" y="635"/>
      <point x="833" y="718" type="qcurve" smooth="yes"/>
      <point x="833" y="802"/>
      <point x="706" y="877"/>
      <point x="531" y="925" type="qcurve" smooth="yes"/>
      <point x="502" y="933"/>
      <point x="452" y="949"/>
      <point x="430" y="958" type="qcurve"/>
      <point x="377" y="936"/>
      <point x="317" y="848"/>
    </contour>
  </outline>
</glyph>
<glyph name="guillemetleft" format="2">
  <advance width="1379"/>
  <unicode hex="00AB"/>
  <outline>
    <contour>
      <point x="25" y="635" type="line"/>
      <point x="25" y="635"/>
      <point x="551" y="1028"/>
      <point x="618" y="1074" type="qcurve" smooth="yes"/>
      <point x="687" y="1120"/>
      <point x="773" y="977"/>
      <point x="711" y="929" type="qcurve" smooth="yes"/>
      <point x="608" y="848"/>
      <point x="323" y="613"/>
      <point x="323" y="613" type="qcurve"/>
      <point x="323" y="613"/>
      <point x="626" y="350"/>
      <point x="715" y="280" type="qcurve" smooth="yes"/>
      <point x="776" y="232"/>
      <point x="698" y="90"/>
      <point x="627" y="134" type="qcurve" smooth="yes"/>
      <point x="561" y="175"/>
      <point x="100" y="524"/>
      <point x="26" y="574" type="qcurve"/>
    </contour>
    <contour>
      <point x="565" y="624" type="line"/>
      <point x="565" y="624"/>
      <point x="1091" y="1024"/>
      <point x="1158" y="1075" type="qcurve" smooth="yes"/>
      <point x="1223" y="1124"/>
      <point x="1313" y="978"/>
      <point x="1251" y="929" type="qcurve" smooth="yes"/>
      <point x="1162" y="859"/>
      <point x="843" y="614"/>
      <point x="843" y="614" type="qcurve"/>
      <point x="843" y="614"/>
      <point x="1163" y="349"/>
      <point x="1255" y="281" type="qcurve" smooth="yes"/>
      <point x="1318" y="234"/>
      <point x="1237" y="88"/>
      <point x="1167" y="134" type="qcurve" smooth="yes"/>
      <point x="1101" y="177"/>
      <point x="640" y="536"/>
      <point x="565" y="584" type="qcurve"/>
    </contour>
  </outline>
</glyph>
<glyph name="degree" format="2">
  <advance width="1004"/>
  <unicode hex="00B0"/>
  <outline>
    <contour>
      <point x="124" y="1193" type="qcurve" smooth="yes"/>
      <point x="124" y="1343"/>
      <point x="337" y="1562"/>
      <point x="502" y="1562" type="qcurve" smooth="yes"/>
      <point x="667" y="1562"/>
      <point x="880" y="1343"/>
      <point x="880" y="1193" type="qcurve" smooth="yes"/>
      <point x="880" y="1046"/>
      <point x="667" y="826"/>
      <point x="502" y="826" type="qcurve" smooth="yes"/>
      <point x="337" y="826"/>
      <point x="124" y="1046"/>
    </contour>
    <contour>
      <point x="293" y="1193" type="qcurve" smooth="yes"/>
      <point x="293" y="1112"/>
      <point x="411" y="986"/>
      <point x="502" y="986" type="qcurve" smooth="yes"/>
      <point x="594" y="986"/>
      <point x="711" y="1112"/>
      <point x="711" y="1193" type="qcurve" smooth="yes"/>
      <point x="711" y="1278"/>
      <point x="594" y="1402"/>
      <point x="502" y="1402" type="qcurve" smooth="yes"/>
      <point x="411" y="1402"/>
      <point x="293" y="1278"/>
    </contour>
  </outline>
</glyph>
<glyph name="Thorn" format="2">
  <advance width="1356"/>
  <unicode hex="00DE"/>
  <outline>
    <contour>
      <point x="82" y="0" type="line"/>
      <point x="82" y="150" type="line"/>
      <point x="290" y="187" type="line"/>
      <point x="292" y="754" type="line"/>
      <point x="290" y="1302" type="line"/>
      <point x="82" y="1336" type="line"/>
      <point x="82" y="1500" type="line"/>
      <point x="724" y="1500" type="line"/>
      <point x="724" y="1336" type="line"/>
      <point x="516" y="1302" type="line"/>
      <point x="514" y="1210" type="line"/>
      <point x="801" y="1210" type="line" smooth="yes"/>
      <point x="1050" y="1210"/>
      <point x="1306" y="992"/>
      <point x="1306" y="776" type="qcurve" smooth="yes"/>
      <point x="1306" y="569"/>
      <point x="1033" y="296"/>
      <point x="774" y="295" type="qcurve"/>
      <point x="660" y="296"/>
      <point x="485" y="316"/>
      <point x="432" y="324" type="qcurve"/>
      <point x="441" y="468" type="line"/>
      <point x="500" y="457"/>
      <point x="615" y="449"/>
      <point x="717" y="448" type="qcurve"/>
      <point x="888" y="449"/>
      <point x="1067" y="624"/>
      <point x="1067" y="777" type="qcurve"/>
      <point x="1067" y="917"/>
      <point x="897" y="1035"/>
      <point x="737" y="1042" type="qcurve" smooth="yes"/>
      <point x="515" y="1042" type="line"/>
      <point x="512" y="474" type="line"/>
      <point x="514" y="182" type="line"/>
      <point x="742" y="150" type="line"/>
      <point x="742" y="0" type="line"/>
    </contour>
  </outline>
</glyph>
<glyph name="OE" format="2">
  <advance width="2140"/>
  <unicode hex="0152"/>
  <outline>
    <contour>
      <point x="80" y="737" type="qcurve" smooth="yes"/>
      <point x="80" y="1068"/>
      <point x="516" y="1510"/>
      <point x="880" y="1510" type="qcurve" smooth="yes"/>
      <point x="968" y="1510"/>
      <point x="1095" y="1500"/>
      <point x="1150" y="1500" type="qcurve" smooth="yes"/>
      <point x="2023" y="1500" type="line"/>
      <point x="2023" y="1131" type="line"/>
      <point x="1871" y="1131" type="line"/>
      <point x="1836" y="1332" type="line"/>
      <point x="1412" y="1332" type="line"/>
      <point x="1343" y="1312" type="line"/>
      <point x="1341" y="783" type="line"/>
      <point x="1343" y="182" type="line"/>
      <point x="1413" y="158" type="line"/>
      <point x="1899" y="158" type="line"/>
      <point x="1975" y="399" type="line"/>
      <point x="2127" y="399" type="line"/>
      <point x="2087" y="0" type="line"/>
      <point x="1188" y="0" type="line" smooth="yes"/>
      <point x="1090" y="0"/>
      <point x="988" y="-11"/>
      <point x="884" y="-11" type="qcurve" smooth="yes"/>
      <point x="529" y="-11"/>
      <point x="80" y="396"/>
    </contour>
    <contour>
      <point x="319" y="769" type="qcurve" smooth="yes"/>
      <point x="319" y="499"/>
      <point x="631" y="171"/>
      <point x="882" y="171" type="qcurve" smooth="yes"/>
      <point x="972" y="171"/>
      <point x="1061" y="180"/>
      <point x="1120" y="187" type="qcurve"/>
      <point x="1122" y="783" type="line"/>
      <point x="1120" y="1302" type="line"/>
      <point x="1048" y="1313"/>
      <point x="964" y="1320"/>
      <point x="882" y="1320" type="qcurve" smooth="yes"/>
      <point x="609" y="1318"/>
      <point x="319" y="1029"/>
    </contour>
    <contour>
      <point x="1232" y="713" type="line"/>
      <point x="1232" y="855" type="line"/>
      <point x="1697" y="865" type="line"/>
      <point x="1732" y="1025" type="line"/>
      <point x="1877" y="1025" type="line"/>
      <point x="1877" y="547" type="line"/>
      <point x="1732" y="547" type="line"/>
      <point x="1697" y="703" type="line"/>
    </contour>
  </outline>
</glyph>
<glyph name="caron" format="2">
  <advance width="1024"/>
  <unicode hex="02C7"/>
  <outline>
    <contour>
      <point x="512" y="1211" type="qcurve" smooth="yes"/>
      <point x="459" y="1211"/>
      <point x="417" y="1231"/>
      <point x="357" y="1298" type="qcurve" smooth="yes"/>
      <point x="159" y="1521" type="line"/>
      <point x="277" y="1614" type="line"/>
      <point x="512" y="1404" type="line"/>
      <point x="747" y="1614" type="line"/>
      <point x="865" y="1521" type="line"/>
      <point x="667" y="1298" type="line" smooth="yes"/>
      <point x="614" y="1238"/>
      <point x="560" y="1211"/>
    </contour>
  </outline>
</glyph>
<glyph name="dagger" format="2">
  <advance width="1048"/>
  <unicode hex="2020"/>
  <outline>
    <contour>
      <point x="509" y="-540" type="line"/>
      <point x="381" y="-58" type="line"/>
      <point x="455" y="550" type="line"/>
      <point x="453" y="900" type="line"/>
      <point x="371" y="1438" type="line"/>
      <point x="421" y="1503" type="line"/>
      <point x="601" y="1506" type="line"/>
      <point x="647" y="1438" type="line"/>
      <point x="573" y="900" type="line"/>
      <point x="575" y="550" type="line"/>
      <point x="647" y="-58" type="line"/>
      <point x="529" y="-540" type="line"/>
    </contour>
    <contour>
      <point x="72" y="822" type="line"/>
      <point x="72" y="1000" type="line"/>
      <point x="515" y="992" type="line"/>
      <point x="976" y="1000" type="line"/>
      <point x="976" y="822" type="line"/>
      <point x="515" y="846" type="line"/>
    </contour>
  </outline>
</glyph>
<glyph name="guilsinglright" format="2">
  <advance width="839"/>
  <unicode hex="203A"/>
  <outline>
    <contour>
      <point x="814" y="588" type="line"/>
      <point x="814" y="588"/>
      <point x="288" y="188"/>
      <point x="221" y="137" type="qcurve" smooth="yes"/>
      <point x="156" y="88"/>
      <point x="66" y="234"/>
      <point x="128" y="283" type="qcurve" smooth="yes"/>
      <point x="217" y="353"/>
      <point x="536" y="598"/>
      <point x="536" y="598" type="qcurve"/>
      <point x="536" y="598"/>
      <point x="216" y="863"/>
      <point x="124" y="931" type="qcurve" smooth="yes"/>
      <point x="61" y="978"/>
      <point x="142" y="1124"/>
      <point x="212" y="1078" type="qcurve" smooth="yes"/>
      <point x="278" y="1035"/>
      <point x="739" y="676"/>
      <point x="814" y="628" type="qcurve"/>
    </contour>
  </outline>
</glyph>
<glyph name="foursuperior" format="2">
  <advance width="768"/>
  <unicode hex="2074"/>
  <outline>
    <contour>
      <point x="-23" y="1035" type="line"/>
      <point x="411" y="1550" type="line"/>
      <point x="548" y="1527" type="line"/>
      <point x="570" y="1499" type="line"/>
      <point x="573" y="958" type="line"/>
      <point x="573" y="762" type="line"/>
      <point x="706" y="743" type="line"/>
      <point x="706" y="621" type="line"/>
      <point x="254" y="621" type="line"/>
      <point x="254" y="743" type="line"/>
      <point x="404" y="762" type="line"/>
      <point x="410" y="957" type="line"/>
      <point x="415" y="1366" type="line"/>
      <point x="141" y="1046" type="line"/>
      <point x="142" y="1033" type="line"/>
      <point x="731" y="1029" type="line"/>
      <point x="731" y="911" type="line"/>
      <point x="4" y="909" type="line"/>
    </contour>
  </outline>
</glyph>
<glyph name="lessequal" format="2">
  <advance width="1024"/>
  <unicode hex="2264"/>
  <outline>
    <contour>
      <point x="90" y="6" type="line"/>
      <point x="90" y="171" type="line"/>
      <point x="944" y="171" type="line"/>
      <point x="944" y="6" type="line"/>
    </contour>
    <contour>
      <point x="123" y="640" type="qcurve"/>
      <point x="126" y="644"/>
      <point x="605" y="1012"/>
      <point x="671" y="1067" type="qcurve" smooth="yes"/>
      <point x="733" y="1119"/>
      <point x="825" y="1015"/>
      <point x="769" y="960" type="qcurve" smooth="yes"/>
      <point x="652" y="846"/>
      <point x="414" y="643"/>
      <point x="410" y="643" type="qcurve"/>
      <point x="414" y="643"/>
      <point x="641" y="481"/>
      <point x="778" y="368" type="qcurve" smooth="yes"/>
      <point x="839" y="318"/>
      <point x="748" y="218"/>
      <point x="694" y="259" type="qcurve" smooth="yes"/>
      <point x="626" y="310"/>
      <point x="125" y="636"/>
    </contour>
  </outline>
</glyph>
<glyph name="fi" format="2">
  <advance width="1360"/>
  <unicode hex="FB01"/>
  <outline>
    <contour>
      <point x="54" y="0" type="line"/>
      <point x="54" y="137" type="line"/>
      <point x="222" y="172" type="line"/>
      <point x="228" y="552" type="line"/>
      <point x="228" y="863" type="line"/>
      <point x="54" y="865" type="line"/>
      <point x="54" y="986" type="line"/>
      <point x="229" y="1024" type="line"/>
      <point x="227" y="1213" type="line" smooth="yes"/>
      <point x="225" y="1366"/>
      <point x="364" y="1521"/>
      <point x="475" y="1521" type="qcurve" smooth="yes"/>
      <point x="555" y="1521"/>
      <point x="653" y="1502"/>
      <point x="693" y="1487" type="qcurve" smooth="yes"/>
      <point x="723" y="1476" type="line"/>
      <point x="683" y="1315" type="line"/>
      <point x="655" y="1326" type="line" smooth="yes"/>
      <point x="627.0" y="1337.0"/>
      <point x="572" y="1353"/>
      <point x="533" y="1353" type="qcurve" smooth="yes"/>
      <point x="483" y="1353"/>
      <point x="431" y="1280"/>
      <point x="433" y="1213" type="qcurve" smooth="yes"/>
      <point x="438" y="1024" type="line"/>
      <point x="1072" y="1050" type="line"/>
      <point x="1119" y="1050" type="line"/>
      <point x="1142" y="1011" type="line"/>
      <point x="1135" y="552" type="line"/>
      <point x="1137" y="172" type="line"/>
      <point x="1295" y="137" type="line"/>
      <point x="1295" y="0" type="line"/>
      <point x="771" y="0" type="line"/>
      <point x="771" y="137" type="line"/>
      <point x="923" y="172" type="line"/>
      <point x="925" y="552" type="line"/>
      <point x="918" y="835" type="line"/>
      <point x="887" y="865" type="line"/>
      <point x="437" y="865" type="line"/>
      <point x="437" y="552" type="line"/>
      <point x="441" y="172" type="line"/>
      <point x="601" y="137" type="line"/>
      <point x="601" y="0" type="line"/>
    </contour>
    <contour>
      <point x="878" y="1357" type="qcurve" smooth="yes"/>
      <point x="878" y="1418"/>
      <point x="954" y="1493"/>
      <point x="1025" y="1493" type="qcurve" smooth="yes"/>
      <point x="1091" y="1493"/>
      <point x="1172" y="1416"/>
      <point x="1172" y="1357" type="qcurve" smooth="yes"/>
      <point x="1172" y="1296"/>
      <point x="1096" y="1225"/>
      <point x="1025" y="1225" type="qcurve" smooth="yes"/>
      <point x="958" y="1225"/>
      <point x="878" y="1300"/>
    </contour>
  </outline>
</glyph>
<glyph name="fl" format="2">
  <advance width="1344"/>
  <unicode hex="FB02"/>
  <outline>
    <contour>
      <point x="54" y="0" type="line"/>
      <point x="54" y="137" type="line"/>
      <point x="222" y="172" type="line"/>
      <point x="228" y="552" type="line"/>
      <point x="228" y="863" type="line"/>
      <point x="54" y="865" type="line"/>
      <point x="54" y="986" type="line"/>
      <point x="229" y="1024" type="line"/>
      <point x="227" y="1305" type="line" smooth="yes"/>
      <point x="226" y="1398"/>
      <point x="355" y="1521"/>
      <point x="455" y="1521" type="qcurve" smooth="yes"/>
      <point x="518" y="1521"/>
      <point x="635" y="1498"/>
      <point x="679" y="1484" type="qcurve" smooth="yes"/>
      <point x="735" y="1469" type="line"/>
      <point x="1060" y="1534" type="line"/>
      <point x="1097" y="1532" type="line"/>
      <point x="1120" y="1501" type="line"/>
      <point x="1118" y="527" type="line"/>
      <point x="1120" y="172" type="line"/>
      <point x="1278" y="137" type="line"/>
      <point x="1278" y="0" type="line"/>
      <point x="764" y="0" type="line"/>
      <point x="764" y="137" type="line"/>
      <point x="906" y="172" type="line"/>
      <point x="908" y="527" type="line"/>
      <point x="906" y="1309" type="line"/>
      <point x="647" y="1341" type="line" smooth="yes"/>
      <point x="602" y="1347"/>
      <point x="535" y="1353"/>
      <point x="503" y="1353" type="qcurve" smooth="yes"/>
      <point x="474" y="1353"/>
      <point x="432" y="1310"/>
      <point x="433" y="1253" type="qcurve" smooth="yes"/>
      <point x="438" y="1024" type="line"/>
      <point x="723" y="1024" type="line"/>
      <point x="723" y="865" type="line"/>
      <point x="437" y="865" type="line"/>
      <point x="437" y="552" type="line"/>
      <point x="441" y="172" type="line"/>
      <point x="594" y="137" type="line"/>
      <point x="594" y="0" type="line"/>
    </contour>
  </outline>
</glyph>
<glyph name="breve_acute.uc" format="2">
  <advance width="1024"/>
  <outline>
    <contour>
      <point x="754" y="1906" type="qcurve"/>
      <point x="908" y="1858" type="line"/>
      <point x="885" y="1775"/>
      <point x="668" y="1614"/>
      <point x="519" y="1614" type="qcurve" smooth="yes"/>
      <point x="360" y="1614"/>
      <point x="144" y="1755"/>
      <point x="116" y="1855" type="qcurve"/>
      <point x="270" y="1907" type="line"/>
      <point x="301" y="1865"/>
      <point x="415" y="1778"/>
      <point x="512" y="1778" type="qcurve" smooth="yes"/>
      <point x="603" y="1778"/>
      <point x="721" y="1859"/>
    </contour>
    <contour>
      <point x="781" y="2170" type="qcurve" smooth="yes"/>
      <point x="781" y="2126"/>
      <point x="746" y="2083"/>
      <point x="705" y="2056" type="qcurve" smooth="yes"/>
      <point x="452" y="1888" type="line"/>
      <point x="359" y="1991" type="line"/>
      <point x="524" y="2169" type="line" smooth="yes"/>
      <point x="559" y="2206"/>
      <point x="632" y="2254"/>
      <point x="669" y="2254" type="qcurve" smooth="yes"/>
      <point x="718" y="2254"/>
      <point x="781" y="2203"/>
    </contour>
  </outline>
</glyph>
<glyph name="circumflex_hookabove.uc" format="2">
  <advance width="1024"/>
  <outline>
    <contour>
      <point x="512" y="1967" type="qcurve" smooth="yes"/>
      <point x="546" y="1967"/>
      <point x="627" y="1919"/>
      <point x="662" y="1880" type="qcurve" smooth="yes"/>
      <point x="830" y="1701" type="line"/>
      <point x="732" y="1608" type="line"/>
      <point x="512" y="1784" type="line"/>
      <point x="277" y="1584" type="line"/>
      <point x="179" y="1677" type="line"/>
      <point x="362" y="1880" type="line" smooth="yes"/>
      <point x="407" y="1930"/>
      <point x="478" y="1967"/>
    </contour>
    <contour>
      <point x="867" y="1481" type="line"/>
      <point x="867" y="1599" type="line"/>
      <point x="949" y="1686" type="line"/>
      <point x="965" y="1679"/>
      <point x="1025" y="1672"/>
      <point x="1046" y="1672" type="qcurve" smooth="yes"/>
      <point x="1098" y="1672"/>
      <point x="1146" y="1718"/>
      <point x="1146" y="1763" type="qcurve" smooth="yes"/>
      <point x="1146" y="1807"/>
      <point x="1067" y="1846"/>
      <point x="1023" y="1846" type="qcurve" smooth="yes"/>
      <point x="959" y="1846"/>
      <point x="891" y="1825"/>
      <point x="853" y="1805" type="qcurve"/>
      <point x="764" y="1917" type="line"/>
      <point x="819" y="1960"/>
      <point x="958" y="1995"/>
      <point x="1025" y="1995" type="qcurve" smooth="yes"/>
      <point x="1145" y="1995"/>
      <point x="1321" y="1879"/>
      <point x="1321" y="1774" type="qcurve" smooth="yes"/>
      <point x="1321" y="1682"/>
      <point x="1190" y="1553"/>
      <point x="1114" y="1553" type="qcurve" smooth="yes"/>
      <point x="1084" y="1553"/>
      <point x="1049" y="1556"/>
      <point x="1030" y="1558" type="qcurve"/>
      <point x="1030" y="1481" type="line"/>
    </contour>
  </outline>
</glyph>
<glyph name="circumflex_tilde" format="2">
  <advance width="1024"/>
  <outline>
    <contour>
      <point x="512" y="1524" type="qcurve" smooth="yes"/>
      <point x="546" y="1524"/>
      <point x="627" y="1476"/>
      <point x="662" y="1437" type="qcurve" smooth="yes"/>
      <point x="845" y="1234" type="line"/>
      <point x="747" y="1141" type="line"/>
      <point x="512" y="1341" type="line"/>
      <point x="277" y="1141" type="line"/>
      <point x="179" y="1234" type="line"/>
      <point x="362" y="1437" type="line" smooth="yes"/>
      <point x="407" y="1487"/>
      <point x="478" y="1524"/>
    </contour>
    <contour>
      <point x="148" y="1585" type="line"/>
      <point x="179" y="1643"/>
      <point x="293" y="1761"/>
      <point x="364" y="1772" type="qcurve" smooth="yes"/>
      <point x="406" y="1778"/>
      <point x="507" y="1758"/>
      <point x="562" y="1735" type="qcurve" smooth="yes"/>
      <point x="607" y="1715"/>
      <point x="669" y="1695"/>
      <point x="711" y="1701" type="qcurve" smooth="yes"/>
      <point x="753" y="1707"/>
      <point x="813" y="1751"/>
      <point x="844" y="1802" type="qcurve"/>
      <point x="954" y="1717" type="line"/>
      <point x="923" y="1651"/>
      <point x="808" y="1527"/>
      <point x="751" y="1517" type="qcurve" smooth="yes"/>
      <point x="702" y="1510"/>
      <point x="594" y="1560"/>
      <point x="554" y="1573" type="qcurve" smooth="yes"/>
      <point x="514" y="1586"/>
      <point x="426" y="1598"/>
      <point x="397" y="1594" type="qcurve" smooth="yes"/>
      <point x="344" y="1586"/>
      <point x="276" y="1518"/>
      <point x="261" y="1490" type="qcurve"/>
    </contour>
  </outline>
</glyph>
<glyph name="dieresis_macron.uc" format="2">
  <advance width="1024"/>
  <outline>
    <contour>
      <point x="149" y="1738" type="qcurve" smooth="yes"/>
      <point x="149" y="1799"/>
      <point x="217" y="1864"/>
      <point x="282" y="1864" type="qcurve" smooth="yes"/>
      <point x="343" y="1864"/>
      <point x="415" y="1794"/>
      <point x="415" y="1738" type="qcurve" smooth="yes"/>
      <point x="415" y="1678"/>
      <point x="348" y="1614"/>
      <point x="282" y="1614" type="qcurve" smooth="yes"/>
      <point x="221" y="1614"/>
      <point x="149" y="1681"/>
    </contour>
    <contour>
      <point x="609" y="1738" type="qcurve" smooth="yes"/>
      <point x="609" y="1799"/>
      <point x="677" y="1864"/>
      <point x="742" y="1864" type="qcurve" smooth="yes"/>
      <point x="803" y="1864"/>
      <point x="875" y="1794"/>
      <point x="875" y="1738" type="qcurve" smooth="yes"/>
      <point x="875" y="1678"/>
      <point x="808" y="1614"/>
      <point x="742" y="1614" type="qcurve" smooth="yes"/>
      <point x="681" y="1614"/>
      <point x="609" y="1681"/>
    </contour>
    <contour>
      <point x="196" y="1966" type="line"/>
      <point x="196" y="2137" type="line"/>
      <point x="828" y="2137" type="line"/>
      <point x="828" y="1966" type="line"/>
    </contour>
  </outline>
</glyph>
<glyph name="dieresisbelow" format="2">
  <outline>
    <contour>
      <point x="97" y="-330" type="qcurve" smooth="yes"/>
      <point x="97" y="-266"/>
      <point x="165" y="-197"/>
      <point x="230" y="-197" type="qcurve" smooth="yes"/>
      <point x="291" y="-197"/>
      <point x="363" y="-271"/>
      <point x="363" y="-330" type="qcurve" smooth="yes"/>
      <point x="363" y="-393"/>
      <point x="296" y="-461"/>
      <point x="230" y="-461" type="qcurve" smooth="yes"/>
      <point x="169" y="-461"/>
      <point x="97" y="-390"/>
    </contour>
    <contour>
      <point x="-363" y="-330" type="qcurve" smooth="yes"/>
      <point x="-363" y="-266"/>
      <point x="-295" y="-197"/>
      <point x="-230" y="-197" type="qcurve" smooth="yes"/>
      <point x="-169" y="-197"/>
      <point x="-97" y="-271"/>
      <point x="-97" y="-330" type="qcurve" smooth="yes"/>
      <point x="-97" y="-393"/>
      <point x="-164" y="-461"/>
      <point x="-230" y="-461" type="qcurve" smooth="yes"/>
      <point x="-291" y="-461"/>
      <point x="-363" y="-390"/>
    </contour>
  </outline>
</glyph>
<glyph name="grave.uc" format="2">
  <advance width="1024"/>
  <outline>
    <contour>
      <point x="265" y="1940" type="qcurve" smooth="yes"/>
      <point x="265" y="1975"/>
      <point x="333" y="2034"/>
      <point x="382" y="2034" type="qcurve" smooth="yes"/>
      <point x="419" y="2034"/>
      <point x="490" y="1984"/>
      <point x="527" y="1944" type="qcurve" smooth="yes"/>
      <point x="745" y="1711" type="line"/>
      <point x="651" y="1605" type="line"/>
      <point x="341" y="1818" type="line" smooth="yes"/>
      <point x="300" y="1846"/>
      <point x="265" y="1893"/>
    </contour>
  </outline>
</glyph>
<glyph name="horizontalbarH" format="2">
  <advance width="1613"/>
  <outline>
    <contour>
      <point x="1576" y="995" type="line"/>
      <point x="1285" y="995" type="line"/>
      <point x="1285" y="1012" type="line"/>
      <point x="800" y="1012" type="line"/>
      <point x="800" y="1154" type="line"/>
      <point x="1285" y="1154" type="line"/>
      <point x="1285" y="1172" type="line"/>
      <point x="1586" y="1172" type="line"/>
    </contour>
    <contour>
      <point x="29" y="996" type="line"/>
      <point x="20" y="1172" type="line"/>
      <point x="282" y="1172" type="line"/>
      <point x="282" y="1154" type="line"/>
      <point x="800" y="1154" type="line"/>
      <point x="800" y="1012" type="line"/>
      <point x="282" y="1012" type="line"/>
      <point x="282" y="996" type="line"/>
    </contour>
  </outline>
</glyph>
